<?xml version="1.0" standalone="no"?>
<!DOCTYPE svg PUBLIC "-//W3C//DTD SVG 20010904//EN"
 "http://www.w3.org/TR/2001/REC-SVG-20010904/DTD/svg10.dtd">
<svg version="1.0" xmlns="http://www.w3.org/2000/svg"
 width="279.000000pt" height="279.000000pt" viewBox="0 0 279.000000 279.000000"
 preserveAspectRatio="xMidYMid meet">
<metadata>
Created by potrace 1.11, written by Peter Selinger 2001-2013
</metadata>
<g transform="translate(0.000000,279.000000) scale(0.100000,-0.100000)"
fill="#000000" stroke="none">
<path d="M1320 2676 c-83 -28 -130 -49 -130 -58 0 -5 -5 -8 -11 -8 -21 0 -159
-113 -226 -184 -37 -40 -86 -104 -109 -142 -23 -38 -98 -162 -167 -276 l-126
-208 59 -30 c33 -17 63 -31 67 -31 5 0 13 -5 20 -11 12 -10 400 -208 407 -208
2 0 28 37 57 83 124 194 169 263 177 272 4 6 31 48 60 95 29 47 61 96 71 109
l18 24 39 -69 c21 -38 42 -70 46 -72 4 -2 8 -10 8 -19 0 -8 8 -27 18 -41 11
-15 32 -52 48 -82 16 -30 32 -56 37 -58 23 -11 -4 -35 -90 -80 -178 -92 -171
-83 -68 -77 50 3 122 7 160 10 125 8 309 18 360 20 28 1 57 5 64 9 7 5 33 38
57 75 58 87 197 290 255 371 61 87 68 100 43 79 -10 -9 -41 -26 -69 -39 -27
-13 -52 -26 -55 -29 -3 -3 -26 -16 -52 -28 l-48 -23 -32 63 c-18 34 -45 85
-59 112 -15 28 -36 66 -45 85 -54 105 -176 248 -242 280 -15 8 -34 19 -42 26
-17 14 -130 58 -175 69 -16 4 -82 9 -145 10 -96 2 -126 -1 -180 -19z"/>
<path d="M2435 1650 c-16 -9 -138 -72 -270 -139 -132 -68 -245 -127 -251 -132
-6 -5 -14 -6 -17 -2 -4 3 -9 -1 -13 -10 -3 -10 21 -64 62 -139 37 -68 82 -150
100 -183 18 -33 53 -96 77 -140 25 -44 43 -81 42 -83 -2 -3 -277 -4 -398 -3
l-38 1 6 48 c3 26 7 70 10 97 2 28 7 60 9 73 3 12 1 20 -4 17 -10 -6 -101
-141 -109 -160 -2 -5 -7 -12 -11 -15 -3 -3 -54 -77 -113 -164 -97 -146 -106
-162 -93 -180 7 -12 66 -112 131 -224 65 -111 119 -201 121 -199 4 4 17 133
16 159 0 10 5 21 11 25 7 4 104 8 217 9 360 1 458 17 619 97 71 36 167 131
201 200 34 71 44 121 44 227 -1 168 -31 283 -115 446 -23 44 -74 144 -115 224
-41 80 -77 150 -81 156 -6 8 -17 6 -38 -6z"/>
<path d="M586 1553 c-1 -1 -109 -3 -239 -4 -131 -1 -236 -3 -235 -4 2 -2 24
-15 51 -29 26 -14 68 -38 95 -52 26 -14 49 -28 50 -29 2 -2 -37 -66 -86 -143
-109 -170 -185 -309 -206 -380 -18 -62 -16 -200 4 -247 63 -149 109 -209 210
-274 63 -41 169 -80 235 -86 6 -1 39 -5 75 -10 36 -4 208 -9 383 -9 l317 -1 1
40 c0 22 2 63 4 90 12 211 18 308 19 360 l1 60 -332 -2 c-183 -1 -333 0 -333
3 0 9 212 324 221 330 4 2 56 -23 114 -56 59 -33 108 -60 111 -60 3 0 -72 121
-191 305 -91 142 -115 180 -118 188 -2 7 -144 17 -151 10z"/>
</g>
</svg>
